<svg width="40" height="40" viewBox="0 0 40 40" fill="none" xmlns="http://www.w3.org/2000/svg">
<rect x="0.5" y="0.5" width="39" height="39" rx="19.5" stroke="#1E2444"/>
<path d="M28 25.0626V19.631C28 19.1079 27.9995 18.8462 27.9346 18.6028C27.877 18.387 27.7825 18.1829 27.6546 17.9984C27.5102 17.7903 27.3096 17.6176 26.9074 17.2732L22.1074 13.1612C21.3608 12.5217 20.9875 12.202 20.5674 12.0804C20.1972 11.9732 19.8026 11.9732 19.4324 12.0804C19.0126 12.2019 18.6398 12.5213 17.8944 13.1599L13.0928 17.2732C12.6906 17.6176 12.49 17.7903 12.3457 17.9984C12.2178 18.1829 12.1225 18.387 12.065 18.6028C12 18.8462 12 19.1079 12 19.631V25.0626C12 25.975 12 26.431 12.1522 26.7908C12.3552 27.2706 12.7443 27.6522 13.2344 27.851C13.6019 28 14.0679 28 14.9997 28C15.9316 28 16.3981 28 16.7656 27.851C17.2557 27.6522 17.6447 27.2707 17.8477 26.7909C17.9999 26.431 18 25.9749 18 25.0625V24.0835C18 23.0021 18.8954 22.1255 20 22.1255C21.1046 22.1255 22 23.0021 22 24.0835V25.0625C22 25.9749 22 26.431 22.1522 26.7909C22.3552 27.2707 22.7443 27.6522 23.2344 27.851C23.6019 28 24.0679 28 24.9997 28C25.9316 28 26.3981 28 26.7656 27.851C27.2557 27.6522 27.6447 27.2706 27.8477 26.7908C27.9999 26.431 28 25.975 28 25.0626Z" stroke="white" stroke-width="2" stroke-linecap="round" stroke-linejoin="round"/>
</svg>
