<svg width="40" height="40" viewBox="0 0 40 40" fill="none" xmlns="http://www.w3.org/2000/svg">
<rect x="0.5" y="0.5" width="39" height="39" rx="19.5" stroke="#1E2444"/>
<path d="M28.3869 18.7122C28.4321 19.4113 28.4321 20.1353 28.3869 20.8344C28.156 24.4069 25.3502 27.2526 21.8278 27.4868C20.626 27.5666 19.3714 27.5665 18.1721 27.4868C17.7591 27.4593 17.309 27.3608 16.9213 27.2011C16.4899 27.0234 16.2742 26.9346 16.1646 26.9481C16.055 26.9615 15.896 27.0788 15.5779 27.3134C15.0171 27.7269 14.3105 28.024 13.2628 27.9985C12.733 27.9856 12.4681 27.9791 12.3495 27.7769C12.2309 27.5747 12.3786 27.2948 12.674 26.735C13.0837 25.9586 13.3433 25.0697 12.9499 24.3576C12.2725 23.3403 11.6971 22.1356 11.613 20.8344C11.5678 20.1353 11.5678 19.4113 11.613 18.7122C11.8439 15.1397 14.6497 12.294 18.1721 12.0599C19.1847 11.9925 19.3946 11.9819 20.421 12.0284" stroke="white" stroke-width="2" stroke-linecap="round" stroke-linejoin="round"/>
<circle cx="26.5" cy="13.5" r="3.5" fill="#FA6161"/>
</svg>
